<?xml version="1.0" encoding="UTF-8" standalone="no"?>
<!DOCTYPE svg PUBLIC "-//W3C//DTD SVG 1.1//EN"
 "http://www.w3.org/Graphics/SVG/1.1/DTD/svg11.dtd">
<!-- Generated by graphviz version 14.1.2 (0)
 -->
<!-- Title: NMT_Project_Workflow Pages: 1 -->
<svg width="1097pt" height="188pt"
 viewBox="0.00 0.00 1097.00 188.00" xmlns="http://www.w3.org/2000/svg" xmlns:xlink="http://www.w3.org/1999/xlink">
<g id="graph0" class="graph" transform="scale(1 1) rotate(0) translate(4 184)">
<title>NMT_Project_Workflow</title>
<polygon fill="white" stroke="none" points="-4,4 -4,-184 1093,-184 1093,4 -4,4"/>
<!-- root -->
<g id="node1" class="node">
<title>root</title>
<polygon fill="#e0e0e0" stroke="black" points="478.62,-180 475.62,-184 454.62,-184 451.62,-180 373.38,-180 373.38,-144 478.62,-144 478.62,-180"/>
<text xml:space="preserve" text-anchor="middle" x="426" y="-155.05" font-family="Helvetica,sans-Serif" font-size="16.00">NMT Project</text>
</g>
<!-- bash -->
<g id="node2" class="node">
<title>bash</title>
<polygon fill="#c8e6c9" stroke="black" points="88,-108 0,-108 0,-72 88,-72 88,-108"/>
<text xml:space="preserve" text-anchor="middle" x="44" y="-91.35" font-family="Helvetica,sans-Serif" font-size="12.00">.sh Scripts</text>
<text xml:space="preserve" text-anchor="middle" x="44" y="-78.6" font-family="Helvetica,sans-Serif" font-size="12.00">(Entry Points)</text>
</g>
<!-- root&#45;&gt;bash -->
<g id="edge1" class="edge">
<title>root&#45;&gt;bash</title>
<path fill="none" stroke="black" d="M373.09,-154.97C309.98,-147.23 201.2,-132.15 99.48,-108.41"/>
<polygon fill="black" stroke="black" points="100.41,-105.03 89.87,-106.13 98.79,-111.84 100.41,-105.03"/>
</g>
<!-- r_files -->
<g id="node3" class="node">
<title>r_files</title>
<polygon fill="#bbdefb" stroke="black" points="178.12,-108 105.88,-108 105.88,-72 178.12,-72 178.12,-108"/>
<text xml:space="preserve" text-anchor="middle" x="142" y="-91.35" font-family="Helvetica,sans-Serif" font-size="12.00">R_files</text>
<text xml:space="preserve" text-anchor="middle" x="142" y="-78.6" font-family="Helvetica,sans-Serif" font-size="12.00">(ML Logic)</text>
</g>
<!-- root&#45;&gt;r_files -->
<g id="edge2" class="edge">
<title>root&#45;&gt;r_files</title>
<path fill="none" stroke="black" d="M373.23,-151.55C326.91,-142.75 257.61,-128.37 189.17,-108.43"/>
<polygon fill="black" stroke="black" points="190.23,-105.1 179.65,-105.61 188.24,-111.81 190.23,-105.1"/>
</g>
<!-- scripts_dir -->
<g id="node4" class="node">
<title>scripts_dir</title>
<polygon fill="#fff9c4" stroke="black" points="302,-108 196,-108 196,-72 302,-72 302,-108"/>
<text xml:space="preserve" text-anchor="middle" x="249" y="-91.35" font-family="Helvetica,sans-Serif" font-size="12.00">scripts/</text>
<text xml:space="preserve" text-anchor="middle" x="249" y="-78.6" font-family="Helvetica,sans-Serif" font-size="12.00">(Init &amp; Validation)</text>
</g>
<!-- root&#45;&gt;scripts_dir -->
<g id="edge3" class="edge">
<title>root&#45;&gt;scripts_dir</title>
<path fill="none" stroke="black" d="M381.79,-143.52C358.05,-134.13 328.58,-122.47 303.43,-112.53"/>
<polygon fill="black" stroke="black" points="304.94,-109.36 294.36,-108.94 302.37,-115.87 304.94,-109.36"/>
</g>
<!-- src_dir -->
<g id="node5" class="node">
<title>src_dir</title>
<polygon fill="#f8bbd0" stroke="black" points="405.5,-108 320.5,-108 320.5,-72 405.5,-72 405.5,-108"/>
<text xml:space="preserve" text-anchor="middle" x="363" y="-91.35" font-family="Helvetica,sans-Serif" font-size="12.00">src/</text>
<text xml:space="preserve" text-anchor="middle" x="363" y="-78.6" font-family="Helvetica,sans-Serif" font-size="12.00">(Utils &amp; Vars)</text>
</g>
<!-- root&#45;&gt;src_dir -->
<g id="edge4" class="edge">
<title>root&#45;&gt;src_dir</title>
<path fill="none" stroke="black" d="M410.43,-143.7C403.03,-135.47 394.03,-125.48 385.88,-116.42"/>
<polygon fill="black" stroke="black" points="388.7,-114.32 379.41,-109.23 383.49,-119 388.7,-114.32"/>
</g>
<!-- config_templates -->
<g id="node6" class="node">
<title>config_templates</title>
<polygon fill="#e1bee7" stroke="black" points="556.12,-108 423.88,-108 423.88,-72 556.12,-72 556.12,-108"/>
<text xml:space="preserve" text-anchor="middle" x="490" y="-91.35" font-family="Helvetica,sans-Serif" font-size="12.00">config_file_templates/</text>
<text xml:space="preserve" text-anchor="middle" x="490" y="-78.6" font-family="Helvetica,sans-Serif" font-size="12.00">(Config Files)</text>
</g>
<!-- root&#45;&gt;config_templates -->
<g id="edge5" class="edge">
<title>root&#45;&gt;config_templates</title>
<path fill="none" stroke="black" d="M441.82,-143.7C449.34,-135.47 458.47,-125.48 466.76,-116.42"/>
<polygon fill="black" stroke="black" points="469.18,-118.96 473.34,-109.22 464.01,-114.24 469.18,-118.96"/>
</g>
<!-- conda_env -->
<g id="node7" class="node">
<title>conda_env</title>
<polygon fill="#dcedc8" stroke="black" points="678.25,-108 573.75,-108 573.75,-72 678.25,-72 678.25,-108"/>
<text xml:space="preserve" text-anchor="middle" x="626" y="-91.35" font-family="Helvetica,sans-Serif" font-size="12.00">conda_env_nmt/</text>
<text xml:space="preserve" text-anchor="middle" x="626" y="-78.6" font-family="Helvetica,sans-Serif" font-size="12.00">(Conda Env)</text>
</g>
<!-- root&#45;&gt;conda_env -->
<g id="edge6" class="edge">
<title>root&#45;&gt;conda_env</title>
<path fill="none" stroke="black" d="M475.95,-143.52C503.14,-134 536.98,-122.16 565.63,-112.13"/>
<polygon fill="black" stroke="black" points="566.63,-115.49 574.91,-108.88 564.31,-108.88 566.63,-115.49"/>
</g>
<!-- z_legacy -->
<g id="node8" class="node">
<title>z_legacy</title>
<polygon fill="#ffcddb" stroke="black" points="901.62,-108 820.38,-108 820.38,-72 901.62,-72 901.62,-108"/>
<text xml:space="preserve" text-anchor="middle" x="861" y="-91.35" font-family="Helvetica,sans-Serif" font-size="12.00">z_legacy/</text>
<text xml:space="preserve" text-anchor="middle" x="861" y="-78.6" font-family="Helvetica,sans-Serif" font-size="12.00">(Backed&#45;up)</text>
</g>
<!-- root&#45;&gt;z_legacy -->
<g id="edge7" class="edge">
<title>root&#45;&gt;z_legacy</title>
<path fill="none" stroke="black" d="M478.9,-152.49C562.81,-138.98 725.42,-112.82 808.85,-99.39"/>
<polygon fill="black" stroke="black" points="809.27,-102.87 818.58,-97.83 808.16,-95.96 809.27,-102.87"/>
</g>
<!-- docs -->
<g id="node9" class="node">
<title>docs</title>
<polygon fill="#eceff1" stroke="black" points="974,-108 920,-108 920,-72 974,-72 974,-108"/>
<text xml:space="preserve" text-anchor="middle" x="947" y="-84.97" font-family="Helvetica,sans-Serif" font-size="12.00">docs/</text>
</g>
<!-- root&#45;&gt;docs -->
<g id="edge8" class="edge">
<title>root&#45;&gt;docs</title>
<path fill="none" stroke="black" d="M479.12,-160.9C567.5,-159.52 749.92,-151.45 908.92,-108.02"/>
<polygon fill="black" stroke="black" points="909.7,-111.43 918.39,-105.37 907.82,-104.69 909.7,-111.43"/>
</g>
<!-- conda_scripts -->
<g id="node14" class="node">
<title>conda_scripts</title>
<polygon fill="#dcedc8" stroke="black" points="434.88,-36 367.12,-36 367.12,0 434.88,0 434.88,-36"/>
<text xml:space="preserve" text-anchor="middle" x="401" y="-19.35" font-family="Helvetica,sans-Serif" font-size="12.00">bin/</text>
<text xml:space="preserve" text-anchor="middle" x="401" y="-6.6" font-family="Helvetica,sans-Serif" font-size="12.00">(Binaries)</text>
</g>
<!-- conda_env&#45;&gt;conda_scripts -->
<g id="edge13" class="edge">
<title>conda_env&#45;&gt;conda_scripts</title>
<path fill="none" stroke="black" d="M573.33,-74.25C533.12,-62.89 480.06,-47.67 445.95,-36.47"/>
<polygon fill="black" stroke="black" points="447.19,-33.19 436.6,-33.32 444.96,-39.83 447.19,-33.19"/>
</g>
<!-- conda_lib -->
<g id="node15" class="node">
<title>conda_lib</title>
<polygon fill="#dcedc8" stroke="black" points="523,-36 453,-36 453,0 523,0 523,-36"/>
<text xml:space="preserve" text-anchor="middle" x="488" y="-19.35" font-family="Helvetica,sans-Serif" font-size="12.00">lib/</text>
<text xml:space="preserve" text-anchor="middle" x="488" y="-6.6" font-family="Helvetica,sans-Serif" font-size="12.00">(Libraries)</text>
</g>
<!-- conda_env&#45;&gt;conda_lib -->
<g id="edge14" class="edge">
<title>conda_env&#45;&gt;conda_lib</title>
<path fill="none" stroke="black" d="M591.53,-71.52C573.53,-62.39 551.31,-51.11 532.07,-41.35"/>
<polygon fill="black" stroke="black" points="533.88,-38.35 523.38,-36.95 530.71,-44.59 533.88,-38.35"/>
</g>
<!-- conda_include -->
<g id="node16" class="node">
<title>conda_include</title>
<polygon fill="#dcedc8" stroke="black" points="610.62,-36 541.38,-36 541.38,0 610.62,0 610.62,-36"/>
<text xml:space="preserve" text-anchor="middle" x="576" y="-19.35" font-family="Helvetica,sans-Serif" font-size="12.00">include/</text>
<text xml:space="preserve" text-anchor="middle" x="576" y="-6.6" font-family="Helvetica,sans-Serif" font-size="12.00">(Headers)</text>
</g>
<!-- conda_env&#45;&gt;conda_include -->
<g id="edge15" class="edge">
<title>conda_env&#45;&gt;conda_include</title>
<path fill="none" stroke="black" d="M613.64,-71.7C607.95,-63.73 601.07,-54.1 594.76,-45.26"/>
<polygon fill="black" stroke="black" points="597.76,-43.44 589.1,-37.34 592.06,-47.51 597.76,-43.44"/>
</g>
<!-- conda_meta -->
<g id="node17" class="node">
<title>conda_meta</title>
<polygon fill="#dcedc8" stroke="black" points="721.25,-36 628.75,-36 628.75,0 721.25,0 721.25,-36"/>
<text xml:space="preserve" text-anchor="middle" x="675" y="-19.35" font-family="Helvetica,sans-Serif" font-size="12.00">conda&#45;meta/</text>
<text xml:space="preserve" text-anchor="middle" x="675" y="-6.6" font-family="Helvetica,sans-Serif" font-size="12.00">(Env Manifest)</text>
</g>
<!-- conda_env&#45;&gt;conda_meta -->
<g id="edge16" class="edge">
<title>conda_env&#45;&gt;conda_meta</title>
<path fill="none" stroke="black" d="M638.11,-71.7C643.69,-63.73 650.43,-54.1 656.62,-45.26"/>
<polygon fill="black" stroke="black" points="659.29,-47.54 662.16,-37.34 653.56,-43.53 659.29,-47.54"/>
</g>
<!-- legacy_config -->
<g id="node10" class="node">
<title>legacy_config</title>
<polygon fill="#ffcdd8" stroke="black" points="871.12,-36 738.88,-36 738.88,0 871.12,0 871.12,-36"/>
<text xml:space="preserve" text-anchor="middle" x="805" y="-12.97" font-family="Helvetica,sans-Serif" font-size="12.00">config_file_templates/</text>
</g>
<!-- z_legacy&#45;&gt;legacy_config -->
<g id="edge9" class="edge">
<title>z_legacy&#45;&gt;legacy_config</title>
<path fill="none" stroke="black" d="M847.16,-71.7C840.71,-63.64 832.92,-53.89 825.79,-44.98"/>
<polygon fill="black" stroke="black" points="828.61,-42.91 819.63,-37.29 823.14,-47.28 828.61,-42.91"/>
</g>
<!-- legacy_r_files -->
<g id="node11" class="node">
<title>legacy_r_files</title>
<polygon fill="#ffcdd8" stroke="black" points="945.25,-36 888.75,-36 888.75,0 945.25,0 945.25,-36"/>
<text xml:space="preserve" text-anchor="middle" x="917" y="-12.97" font-family="Helvetica,sans-Serif" font-size="12.00">R_files/</text>
</g>
<!-- z_legacy&#45;&gt;legacy_r_files -->
<g id="edge10" class="edge">
<title>z_legacy&#45;&gt;legacy_r_files</title>
<path fill="none" stroke="black" d="M874.84,-71.7C881.29,-63.64 889.08,-53.89 896.21,-44.98"/>
<polygon fill="black" stroke="black" points="898.86,-47.28 902.37,-37.29 893.39,-42.91 898.86,-47.28"/>
</g>
<!-- legacy_scripts -->
<g id="node12" class="node">
<title>legacy_scripts</title>
<polygon fill="#ffcdd8" stroke="black" points="1017,-36 963,-36 963,0 1017,0 1017,-36"/>
<text xml:space="preserve" text-anchor="middle" x="990" y="-12.97" font-family="Helvetica,sans-Serif" font-size="12.00">scripts/</text>
</g>
<!-- z_legacy&#45;&gt;legacy_scripts -->
<g id="edge11" class="edge">
<title>z_legacy&#45;&gt;legacy_scripts</title>
<path fill="none" stroke="black" d="M893.22,-71.52C911.23,-61.74 933.76,-49.52 952.55,-39.32"/>
<polygon fill="black" stroke="black" points="954.1,-42.46 961.22,-34.62 950.76,-36.31 954.1,-42.46"/>
</g>
<!-- legacy_src -->
<g id="node13" class="node">
<title>legacy_src</title>
<polygon fill="#ffcdd8" stroke="black" points="1089,-36 1035,-36 1035,0 1089,0 1089,-36"/>
<text xml:space="preserve" text-anchor="middle" x="1062" y="-12.97" font-family="Helvetica,sans-Serif" font-size="12.00">src/</text>
</g>
<!-- z_legacy&#45;&gt;legacy_src -->
<g id="edge12" class="edge">
<title>z_legacy&#45;&gt;legacy_src</title>
<path fill="none" stroke="black" d="M901.9,-75C904.98,-73.98 908.04,-72.97 911,-72 958.73,-56.42 974.19,-55.53 1024.18,-36.46"/>
<polygon fill="black" stroke="black" points="1025.19,-39.82 1033.24,-32.94 1022.65,-33.29 1025.19,-39.82"/>
</g>
</g>
</svg>
